# xmcd
#
# Track frame offsets:
#	182
#	10102
#	23440
#	32527
#	46545
#	58440
#	71490
#	79670
#	92335
#	101090
#	111907
#	122995
#	134495
#	154567
#	168692
#	178732
#	188122
#	201340
#	208817
#	223495
#	233192
#	245105
#	256385
#	270022
#
# Disc length: 3753 seconds
#
# Revision: 1
# Processed by: cddbd v1.5PL3 Copyright (c) Steve Scherf et al.
# Submitted via: CDex 1.50Beta5
#
DISCID=560ea718
DTITLE=Bo Diddley - Hey! Bo Diddley/Bo Diddley
DYEAR=1900
DGENRE=Blues
TTITLE0=Hey Bo Diddley
TTITLE1=I'm A Man
TTITLE2=Detour
TTITLE3=Before You Accuse Me
TTITLE4=Bo Diddley
TTITLE5=Hush Your Mouth
TTITLE6=My Babe
TTITLE7=Road Runner
TTITLE8=Shank
TTITLE9=I Know
TTITLE10=Here 'Tis
TTITLE11=I'm Looking For A Woman
TTITLE12=I Can Tell
TTITLE13=Mr. Khrushchev
TTITLE14=Diddling
TTITLE15=Give Me A Break (Man)
TTITLE16=Who May Your Lover Be
TTITLE17=Bo's Bounce
TTITLE18=You Can't Judge A Book By The Cover
TTITLE19=Babes In The Woods
TTITLE20=Sad Sack
TTITLE21=Mama Don't Allow No Twistin'
TTITLE22=You All Green
TTITLE23=Bo's Twist
EXTD=
EXTT0=
EXTT1=
EXTT2=
EXTT3=
EXTT4=
EXTT5=
EXTT6=
EXTT7=
EXTT8=
EXTT9=
EXTT10=
EXTT11=
EXTT12=
EXTT13=
EXTT14=
EXTT15=
EXTT16=
EXTT17=
EXTT18=
EXTT19=
EXTT20=
EXTT21=
EXTT22=
EXTT23=
PLAYORDER=
